<svg width="25" height="24" viewBox="0 0 25 24" fill="none" xmlns="http://www.w3.org/2000/svg">
<path d="M12.6668 22C13.9802 22.0017 15.2811 21.7438 16.4946 21.2412C17.708 20.7385 18.8102 20.001 19.7378 19.071C20.6677 18.1435 21.4053 17.0413 21.9079 15.8278C22.4106 14.6143 22.6685 13.3135 22.6668 12C22.6684 10.6865 22.4105 9.38569 21.9079 8.17221C21.4052 6.95874 20.6677 5.85655 19.7378 4.929C18.8102 3.99901 17.708 3.2615 16.4946 2.75884C15.2811 2.25619 13.9802 1.9983 12.6668 2C11.3533 1.99833 10.0524 2.25623 8.83897 2.75888C7.62549 3.26154 6.52331 3.99904 5.59576 4.929C4.66579 5.85655 3.92829 6.95874 3.42564 8.17221C2.92298 9.38569 2.66508 10.6865 2.66676 12C2.66505 13.3135 2.92294 14.6143 3.4256 15.8278C3.92826 17.0413 4.66577 18.1435 5.59576 19.071C6.52331 20.001 7.62549 20.7385 8.83897 21.2411C10.0524 21.7438 11.3533 22.0017 12.6668 22Z" stroke="#04B92C" stroke-width="2" stroke-linejoin="round"/>
<path d="M8.66675 12L11.6667 15L17.6667 9" stroke="#04B92C" stroke-width="2" stroke-linecap="round" stroke-linejoin="round"/>
</svg>
