<svg width="25" height="24" viewBox="0 0 25 24" fill="none" xmlns="http://www.w3.org/2000/svg">
<path d="M9.06675 17L12.6667 13.4L16.2667 17L17.6667 15.6L14.0667 12L17.6667 8.4L16.2667 7L12.6667 10.6L9.06675 7L7.66675 8.4L11.2667 12L7.66675 15.6L9.06675 17ZM12.6667 22C11.2834 22 9.98342 21.7373 8.76675 21.212C7.55008 20.6867 6.49175 19.9743 5.59175 19.075C4.69175 18.1757 3.97942 17.1173 3.45475 15.9C2.93008 14.6827 2.66742 13.3827 2.66675 12C2.66608 10.6173 2.92875 9.31733 3.45475 8.1C3.98075 6.88267 4.69308 5.82433 5.59175 4.925C6.49042 4.02567 7.54875 3.31333 8.76675 2.788C9.98475 2.26267 11.2847 2 12.6667 2C14.0487 2 15.3487 2.26267 16.5667 2.788C17.7847 3.31333 18.8431 4.02567 19.7418 4.925C20.6404 5.82433 21.3531 6.88267 21.8797 8.1C22.4064 9.31733 22.6688 10.6173 22.6667 12C22.6647 13.3827 22.4021 14.6827 21.8787 15.9C21.3554 17.1173 20.6431 18.1757 19.7418 19.075C18.8404 19.9743 17.7821 20.687 16.5667 21.213C15.3514 21.739 14.0514 22.0013 12.6667 22ZM12.6667 20C14.9001 20 16.7917 19.225 18.3417 17.675C19.8917 16.125 20.6667 14.2333 20.6667 12C20.6667 9.76667 19.8917 7.875 18.3417 6.325C16.7917 4.775 14.9001 4 12.6667 4C10.4334 4 8.54175 4.775 6.99175 6.325C5.44175 7.875 4.66675 9.76667 4.66675 12C4.66675 14.2333 5.44175 16.125 6.99175 17.675C8.54175 19.225 10.4334 20 12.6667 20Z" fill="#FF0000"/>
</svg>
