<svg width="121" height="120" viewBox="0 0 121 120" fill="none" xmlns="http://www.w3.org/2000/svg">
<path d="M107.206 47.3635C105.439 45.5166 103.611 43.6135 102.921 41.9401C102.284 40.4072 102.246 37.8666 102.209 35.4057C102.139 30.8307 102.064 25.6463 98.459 22.0416C94.8543 18.4369 89.6699 18.3619 85.0949 18.2916C82.634 18.2541 80.0934 18.2166 78.5605 17.5791C76.8918 16.8901 74.984 15.0619 73.1371 13.2948C69.9027 10.1869 66.2277 6.66663 61.334 6.66663C56.4402 6.66663 52.7699 10.1869 49.5309 13.2948C47.684 15.0619 45.7809 16.8901 44.1074 17.5791C42.584 18.2166 40.034 18.2541 37.573 18.2916C32.998 18.3619 27.8137 18.4369 24.209 22.0416C20.6043 25.6463 20.5527 30.8307 20.459 35.4057C20.4215 37.8666 20.384 40.4072 19.7465 41.9401C19.0574 43.6088 17.2293 45.5166 15.4621 47.3635C12.3543 50.5979 8.83398 54.2729 8.83398 59.1666C8.83398 64.0604 12.3543 67.7307 15.4621 70.9697C17.2293 72.8166 19.0574 74.7197 19.7465 76.3932C20.384 77.926 20.4215 80.4666 20.459 82.9276C20.5293 87.5026 20.6043 92.6869 24.209 96.2916C27.8137 99.8963 32.998 99.9713 37.573 100.042C40.034 100.079 42.5746 100.117 44.1074 100.754C45.7762 101.443 47.684 103.271 49.5309 105.038C52.7652 108.146 56.4402 111.667 61.334 111.667C66.2277 111.667 69.898 108.146 73.1371 105.038C74.984 103.271 76.8871 101.443 78.5605 100.754C80.0934 100.117 82.634 100.079 85.0949 100.042C89.6699 99.9713 94.8543 99.8963 98.459 96.2916C102.064 92.6869 102.139 87.5026 102.209 82.9276C102.246 80.4666 102.284 77.926 102.921 76.3932C103.611 74.7244 105.439 72.8166 107.206 70.9697C110.314 67.7354 113.834 64.0604 113.834 59.1666C113.834 54.2729 110.314 50.6026 107.206 47.3635Z" fill="#04B92C"/>
<path d="M47.1675 75.5556C47.1675 76.7343 47.6358 77.8648 48.4693 78.6983C49.3028 79.5317 50.4332 80 51.612 80H69.3898C70.5685 80 71.699 79.5317 72.5325 78.6983C73.3659 77.8648 73.8342 76.7343 73.8342 75.5556V48.8889H47.1675V75.5556ZM51.612 53.3333H69.3898V75.5556H51.612V53.3333ZM68.2786 42.2222L66.0564 40H54.9453L52.7231 42.2222H44.9453V46.6667H76.0564V42.2222H68.2786Z" fill="white"/>
</svg>
