<svg width="62" height="64" viewBox="0 0 62 64" fill="none" xmlns="http://www.w3.org/2000/svg">
<path d="M30.0384 63.9999C27.8336 62.8607 25.6287 61.7215 23.427 60.5824C21.2252 59.4432 19.0234 58.3103 16.8215 57.1712C16.8215 53.152 16.8215 49.12 16.8215 45.0944C16.8215 41.0752 16.8215 37.0432 16.8215 33.0176C15.62 32.992 14.4185 32.9663 13.2169 32.9408C13.2169 36.672 13.2169 40.4032 13.2169 44.128C13.2169 47.8527 13.2169 51.5904 13.2169 55.3088C11.012 54.1631 8.80721 53.0239 6.60544 51.8847C4.40367 50.7456 2.20183 49.6127 0 48.4736C0 42.9887 0 37.4975 0 32.0128C0 26.5216 0 21.0304 0 15.5328C2.20177 14.3872 4.40361 13.2544 6.60544 12.1152C8.80721 10.9761 11.012 9.83681 13.2169 8.69123C13.2169 11.7952 13.2169 14.8928 13.2169 17.9904C13.2169 21.088 13.2169 24.1792 13.2169 27.2767C14.4185 27.1488 15.62 27.0272 16.8215 26.8992C16.8215 23.5584 16.8215 20.2112 16.8215 16.8704C16.8215 13.5296 16.8215 10.1824 16.8215 6.82879C19.0233 5.68966 21.2251 4.55678 23.427 3.41758C25.6287 2.27845 27.8336 1.13919 30.0384 0C30.0384 10.6688 30.0384 21.344 30.0384 32.0064C30.0384 42.6689 30.0384 53.3376 30.0384 64V63.9999Z" fill="#B63336"/>
<path d="M32.6855 62.8279C32.6855 52.5566 32.6855 42.2792 32.6855 32.008C32.6855 21.7368 32.6855 11.4594 32.6855 1.18188C35.2092 2.4485 37.74 3.71269 40.2625 4.96933C42.7874 6.22715 45.3159 7.48385 47.8425 8.7442C49.6526 9.64715 51.3396 10.6488 52.9189 11.7165C54.4842 12.7746 55.9289 13.8867 57.276 15.0085C59.9351 17.2228 61.2879 19.26 61.2879 21.3041C61.2879 22.8405 61.2879 24.3704 61.2879 25.9067C61.2879 27.0668 60.6466 27.9674 59.4081 28.7034C58.1458 29.4537 56.2781 30.0955 53.7776 30.5532C56.4174 31.0737 58.3836 31.7824 59.7156 32.6037C61.018 33.4067 61.694 34.3532 61.694 35.5634C61.694 37.6828 61.694 39.796 61.694 41.9154C61.694 44.0726 60.4162 46.1917 57.9171 48.462C56.6331 49.6282 55.2672 50.7757 53.7689 51.8355C52.262 52.9014 50.6435 53.8898 48.9013 54.7576C46.1995 56.1033 43.4936 57.4527 40.7905 58.8021C38.0922 60.1491 35.3862 61.4922 32.6855 62.8279ZM49.1536 25.2797C49.1536 22.7213 49.1536 20.1503 49.1536 17.5857C49.1536 16.0055 47.9556 14.7702 45.5595 13.8861C45.5595 16.131 45.5595 18.3758 45.5595 20.6144C45.5595 22.853 45.5595 25.0978 45.5595 27.3365C47.9556 27.5684 49.1536 26.885 49.1536 25.2797ZM49.1536 46.4115C49.1536 42.599 49.1536 38.7802 49.1536 34.9614C49.1536 33.3812 47.9556 32.6099 45.5595 32.6413C45.5595 35.5634 45.5595 38.4792 45.5595 41.395C45.5595 44.3108 45.5595 47.2267 45.5595 50.1424C47.9556 49.2583 49.1536 48.0167 49.1536 46.4114V46.4115Z" fill="#B63336"/>
<path fillRule="evenodd" clipRule="evenodd" d="M7.02942 28.7731C7.02942 28.7731 12.3402 27.1319 17.5916 29.1169C18.821 27.6672 20.5215 26.6043 22.7083 26.6043C24.7578 26.6043 26.8192 27.8538 27.7877 29.6814C28.2539 28.4599 30.6689 22.6865 35.5619 20.0681C41.0502 17.1312 45.0772 14.6784 46.6685 10.1279C46.6685 10.1279 47.2855 13.9361 41.927 17.7767C36.5686 21.6172 34.3279 22.9404 33.1587 24.4572C33.1587 24.4572 36.9583 21.6172 40.693 19.4548C44.4276 17.2926 46.1488 14.4202 46.1488 14.4202C46.1488 14.4202 45.9215 20.1003 35.8866 24.9735C35.8866 24.9735 40.2708 24.1667 44.2003 19.9712C44.2003 19.9712 43.5183 24.7476 36.3413 27.7167C36.3413 27.7167 39.7187 27.2972 42.3817 24.4572C42.3817 24.4572 41.31 27.5231 35.1072 28.459C29.2392 29.3445 27.5836 30.2323 27.422 30.3256L27.4081 30.3338C26.6397 28.5074 24.8249 27.2239 22.7083 27.2239C21.3649 27.2239 20.1433 27.7411 19.2334 28.5859C19.3334 28.5468 19.4429 28.5251 19.5577 28.5251C20.0286 28.5251 20.4103 28.8885 20.4103 29.3367C20.4103 29.696 20.1649 30.0009 19.8251 30.1076C20.8482 30.7007 21.8257 31.4638 22.7083 32.4393C21.699 31.6705 21.0917 31.4384 19.9027 31.2255C19.9027 31.2255 20.2144 35.7954 23.5918 39.849C26.9693 43.9024 32.2952 43.9024 32.2952 43.9024C32.2952 43.9024 25.8025 44.5344 21.8991 39.0389C17.9957 33.5434 20.7607 30.9431 14.3638 29.2394C12.2885 28.8548 9.83942 28.6381 7.0293 28.773L7.02942 28.7731Z" fill="#FEFEFE"/>
<path fillRule="evenodd" clipRule="evenodd" d="M34.534 43.95C33.5029 48.1198 30.166 51.3883 25.9434 52.3442C26.223 51.8293 26.3819 51.2401 26.3819 50.614C26.3819 50.3645 26.3566 50.1208 26.3086 49.8854C29.8855 49.2809 32.8986 47.0325 34.534 43.95Z" fill="#FEFEFE"/>
<path fillRule="evenodd" clipRule="evenodd" d="M34.9082 37.0837C38.4073 39.7391 40.42 44.7001 40.42 48.2258C40.42 51.7514 39.8637 52.7727 38.8766 54.7295C38.6097 52.3394 37.6999 51.1303 36.9096 50.5222C37.0918 49.5415 37.1877 48.5308 37.1877 47.4979C37.1877 45.2375 36.7314 43.0833 35.9056 41.1208C36.7599 41.8688 37.8576 43.2688 38.7639 45.8648C38.7639 45.8648 39.3194 41.8203 34.9083 37.0838L34.9082 37.0837Z" fill="#FEFEFE"/>
<path fillRule="evenodd" clipRule="evenodd" d="M23.8856 36.1724C23.8856 36.1724 23.1712 32.2028 28.1075 30.5892C33.0437 28.9755 35.9989 29.8469 42.0393 27.265C42.0393 27.265 40.1557 30.0405 35.5118 30.8151C30.8678 31.5897 28.9193 32.1706 28.9193 32.1706C28.9193 32.1706 32.1344 31.6864 34.8623 31.5574C37.5902 31.4283 40.7403 30.1696 40.8052 29.8146C40.8052 29.8146 39.3762 33.8488 30.1533 33.7197C30.1533 33.7197 33.5633 34.6556 38.2397 32.9129C38.2397 32.9129 36.1233 35.9706 29.991 35.9465C29.991 35.9465 32.7189 36.5597 35.252 35.5592C35.252 35.5592 34.3427 37.9474 28.2698 36.8179C24.6927 36.198 24.0521 36.1341 23.8856 36.1724Z" fill="#FEFEFE"/>
<path d="M19.792 29.6971C19.9489 29.6971 20.0761 29.5707 20.0761 29.4147C20.0761 29.2588 19.9489 29.1323 19.792 29.1323C19.635 29.1323 19.5078 29.2588 19.5078 29.4147C19.5078 29.5707 19.635 29.6971 19.792 29.6971Z" fill="#FEFEFE"/>
<path fillRule="evenodd" clipRule="evenodd" d="M21.166 32.1665C21.166 32.1665 22.9035 32.6991 23.6017 33.635C23.6017 33.635 21.0523 37.6853 28.0345 41.2353C28.0345 41.2353 22.0266 41.1062 21.166 32.1666V32.1665Z" fill="#FEFEFE"/>
<path fillRule="evenodd" clipRule="evenodd" d="M34.2611 43.3804C34.2611 43.3804 32.3613 45.2845 29.6496 45.7202C29.6496 45.7202 29.8769 47.3338 28.4805 48.3989C28.4805 48.3989 32.5313 46.664 34.261 43.3803L34.2611 43.3804Z" fill="#FEFEFE"/>
<path fillRule="evenodd" clipRule="evenodd" d="M34.4398 47.011C34.4398 47.011 32.8485 51.4002 27.75 53.272C27.75 53.272 29.2764 55.3697 27.8149 57.2739C27.8149 57.2739 33.2708 52.7234 34.4398 47.011Z" fill="#FEFEFE"/>
<path fillRule="evenodd" clipRule="evenodd" d="M35.5106 42.5573C35.5106 42.5573 36.5823 48.9474 31.4512 55.176C31.4512 55.176 32.9451 56.3056 32.1981 59.9525C32.1981 59.9525 38.3099 52.423 35.5106 42.5573Z" fill="#FEFEFE"/>
</svg>
