<svg width="256" height="60" viewBox="0 0 256 60" fill="none" xmlns="http://www.w3.org/2000/svg">
<path d="M28.161 59.9999C26.094 58.9319 24.0269 57.8639 21.9628 56.796C19.8986 55.728 17.8344 54.666 15.7702 53.598C15.7702 49.83 15.7702 46.05 15.7702 42.276C15.7702 38.508 15.7702 34.728 15.7702 30.954C14.6437 30.93 13.5173 30.9059 12.3909 30.882C12.3909 34.38 12.3909 37.878 12.3909 41.37C12.3909 44.8619 12.3909 48.366 12.3909 51.852C10.3238 50.7779 8.25676 49.7099 6.1926 48.6419C4.12844 47.574 2.06422 46.5119 0 45.444C0 40.3019 0 35.1539 0 30.012C0 24.864 0 19.716 0 14.562C2.06416 13.488 4.12838 12.426 6.1926 11.358C8.25676 10.2901 10.3238 9.222 12.3909 8.14803C12.3909 11.058 12.3909 13.962 12.3909 16.866C12.3909 19.77 12.3909 22.668 12.3909 25.572C13.5173 25.452 14.6437 25.338 15.7702 25.218C15.7702 22.086 15.7702 18.948 15.7702 15.816C15.7702 12.684 15.7702 9.54599 15.7702 6.40199C17.8344 5.33405 19.8985 4.27198 21.9628 3.20398C24.0269 2.13605 26.094 1.068 28.161 0C28.161 10.002 28.161 20.01 28.161 30.006C28.161 40.0021 28.161 50.004 28.161 60V59.9999Z" fill="#B63336"/>
<path d="M30.6426 58.901C30.6426 49.2717 30.6426 39.6367 30.6426 30.0074C30.6426 20.3782 30.6426 10.743 30.6426 1.10791C33.0085 2.29536 35.3811 3.48054 37.746 4.65864C40.1131 5.83784 42.4835 7.016 44.8522 8.19758C46.5492 9.04409 48.1307 9.98317 49.6114 10.9841C51.0788 11.9761 52.4332 13.0187 53.6961 14.0704C56.189 16.1463 57.4573 18.0561 57.4573 19.9725C57.4573 21.4128 57.4573 22.8472 57.4573 24.2874C57.4573 25.375 56.8561 26.2193 55.695 26.9094C54.5116 27.6127 52.7606 28.2144 50.4164 28.6436C52.8911 29.1315 54.7345 29.7959 55.9832 30.5658C57.2042 31.3187 57.838 32.206 57.838 33.3406C57.838 35.3275 57.838 37.3086 57.838 39.2956C57.838 41.3179 56.6401 43.3046 54.2972 45.433C53.0934 46.5264 51.8128 47.6021 50.4082 48.5957C48.9955 49.595 47.4782 50.5216 45.8448 51.3351C43.3119 52.5967 40.7751 53.8618 38.2409 55.1269C35.7113 56.3897 33.1745 57.6489 30.6426 58.901ZM46.0814 23.6996C46.0814 21.3011 46.0814 18.8908 46.0814 16.4865C46.0814 15.005 44.9582 13.847 42.7119 13.0181C42.7119 15.1227 42.7119 17.2273 42.7119 19.3259C42.7119 21.4246 42.7119 23.5291 42.7119 25.6278C44.9582 25.8453 46.0814 25.2045 46.0814 23.6996ZM46.0814 43.5106C46.0814 39.9364 46.0814 36.3563 46.0814 32.7762C46.0814 31.2948 44.9582 30.5717 42.7119 30.6011C42.7119 33.3406 42.7119 36.0741 42.7119 38.8077C42.7119 41.5413 42.7119 44.2749 42.7119 47.0084C44.9582 46.1795 46.0814 45.0156 46.0814 43.5106V43.5106Z" fill="#B63336"/>
<path fill-rule="evenodd" clip-rule="evenodd" d="M6.58947 26.9747C6.58947 26.9747 11.5683 25.4361 16.4915 27.297C17.644 25.938 19.2383 24.9415 21.2885 24.9415C23.2098 24.9415 25.1424 26.1129 26.0503 27.8262C26.4874 26.6811 28.7514 21.2685 33.3387 18.8137C38.484 16.0604 42.2592 13.7609 43.7511 9.49487C43.7511 9.49487 44.3295 13.0651 39.306 16.6656C34.2825 20.2661 32.1818 21.5066 31.0857 22.9286C31.0857 22.9286 34.6478 20.2661 38.149 18.2388C41.6503 16.2117 43.2639 13.5189 43.2639 13.5189C43.2639 13.5189 43.0508 18.8439 33.6431 23.4126C33.6431 23.4126 37.7532 22.6562 41.4372 18.7229C41.4372 18.7229 40.7978 23.2008 34.0693 25.9844C34.0693 25.9844 37.2357 25.591 39.7322 22.9285C39.7322 22.9285 38.7275 25.8028 32.9124 26.6803C27.4111 27.5104 25.859 28.3427 25.7075 28.4302L25.6945 28.4378C24.9741 26.7256 23.2727 25.5223 21.2884 25.5223C20.029 25.5223 18.8837 26.0072 18.0307 26.7992C18.1245 26.7625 18.2271 26.7422 18.3347 26.7422C18.7762 26.7422 19.134 27.0829 19.134 27.5031C19.134 27.84 18.904 28.1258 18.5854 28.2258C19.5446 28.7818 20.461 29.4973 21.2885 30.4117C20.3422 29.691 19.7728 29.4734 18.6581 29.2739C18.6581 29.2739 18.9504 33.5581 22.1167 37.3583C25.2831 41.1585 30.2761 41.1585 30.2761 41.1585C30.2761 41.1585 24.1892 41.751 20.5298 36.5989C16.8704 31.4469 19.4625 29.0091 13.4655 27.4119C11.5198 27.0513 9.22384 26.8482 6.58936 26.9746L6.58947 26.9747Z" fill="#FEFEFE"/>
<path fill-rule="evenodd" clip-rule="evenodd" d="M32.376 41.2031C31.4093 45.1123 28.2809 48.1765 24.3223 49.0726C24.5845 48.5899 24.7334 48.0376 24.7334 47.4506C24.7334 47.2167 24.7097 46.9883 24.6646 46.7675C28.018 46.2008 30.8428 44.093 32.376 41.2031Z" fill="#FEFEFE"/>
<path fill-rule="evenodd" clip-rule="evenodd" d="M32.7271 34.7659C36.0075 37.2552 37.8944 41.9062 37.8944 45.2116C37.8944 48.5168 37.3728 49.4742 36.4474 51.3087C36.1972 49.0681 35.3443 47.9345 34.6033 47.3644C34.7742 46.4451 34.8641 45.4975 34.8641 44.5291C34.8641 42.4101 34.4363 40.3905 33.6621 38.5506C34.463 39.2519 35.4921 40.5643 36.3417 42.9982C36.3417 42.9982 36.8626 39.2064 32.7271 34.7659L32.7271 34.7659Z" fill="#FEFEFE"/>
<path fill-rule="evenodd" clip-rule="evenodd" d="M22.3917 33.9117C22.3917 33.9117 21.7219 30.1902 26.3496 28.6774C30.9774 27.1646 33.7479 27.9815 39.4108 25.561C39.4108 25.561 37.6449 28.163 33.2912 28.8892C28.9375 29.6154 27.1108 30.16 27.1108 30.16C27.1108 30.16 30.1249 29.7061 32.6823 29.5851C35.2397 29.4641 38.1929 28.2841 38.2538 27.9513C38.2538 27.9513 36.9141 31.7333 28.2677 31.6123C28.2677 31.6123 31.4645 32.4897 35.8486 30.8559C35.8486 30.8559 33.8645 33.7225 28.1154 33.6999C28.1154 33.6999 30.6728 34.2748 33.0476 33.3368C33.0476 33.3368 32.1951 35.5758 26.5019 34.5168C23.1483 33.9357 22.5477 33.8758 22.3917 33.9117Z" fill="#FEFEFE"/>
<path d="M18.555 27.8409C18.7021 27.8409 18.8214 27.7224 18.8214 27.5761C18.8214 27.4299 18.7021 27.3114 18.555 27.3114C18.4078 27.3114 18.2886 27.4299 18.2886 27.5761C18.2886 27.7224 18.4078 27.8409 18.555 27.8409Z" fill="#FEFEFE"/>
<path fill-rule="evenodd" clip-rule="evenodd" d="M19.8428 30.1561C19.8428 30.1561 21.4717 30.6554 22.1262 31.5328C22.1262 31.5328 19.7362 35.33 26.282 38.6582C26.282 38.6582 20.6496 38.5371 19.8428 30.1562V30.1561Z" fill="#FEFEFE"/>
<path fill-rule="evenodd" clip-rule="evenodd" d="M32.12 40.6689C32.12 40.6689 30.339 42.454 27.7967 42.8625C27.7967 42.8625 28.0099 44.3752 26.7007 45.3737C26.7007 45.3737 30.4984 43.7473 32.12 40.6688L32.12 40.6689Z" fill="#FEFEFE"/>
<path fill-rule="evenodd" clip-rule="evenodd" d="M32.2878 44.0728C32.2878 44.0728 30.796 48.1877 26.0161 49.9425C26.0161 49.9425 27.4471 51.9091 26.077 53.6942C26.077 53.6942 31.1918 49.4281 32.2878 44.0728Z" fill="#FEFEFE"/>
<path fill-rule="evenodd" clip-rule="evenodd" d="M33.2915 39.8973C33.2915 39.8973 34.2963 45.8881 29.4858 51.7275C29.4858 51.7275 30.8864 52.7864 30.1861 56.2054C30.1861 56.2054 35.9159 49.1465 33.2915 39.8973Z" fill="#FEFEFE"/>
<path d="M236.119 36.6195H247.347C247.923 36.6195 248.442 36.5686 248.904 36.473C250.109 36.2565 251.172 35.8298 252.095 35.1802C253.197 34.4096 254.011 33.3779 254.537 32.0851C255.075 30.805 255.267 29.4358 255.101 27.9837C255.017 24.946 253.652 22.9335 251.012 21.9337L242.451 19.9786C241.649 19.7047 241.246 18.9915 241.246 17.8515C241.246 16.7179 241.855 16.1511 243.066 16.1511H253.165V10.4832H242.822C242.31 10.5278 241.803 10.5978 241.303 10.6869C239.836 10.9353 238.663 11.3684 237.772 11.9925C236.773 12.7376 235.991 13.661 235.427 14.7501C234.876 15.8454 234.607 17.0109 234.62 18.24C234.632 19.5456 234.94 20.7619 235.542 21.8764C236.138 23.01 236.965 23.9271 238.016 24.6212C238.734 25.1052 239.612 25.481 240.663 25.7421L247.327 27.0667C248.128 27.2895 248.532 27.9901 248.532 29.1747C248.532 30.3592 247.93 30.9451 246.731 30.9451H236.119V36.6194L236.119 36.6195Z" fill="white"/>
<path d="M221.74 10.4644L210.775 10.4835V36.6198H221.74C228.436 36.607 231.781 32.2701 231.781 23.6153C231.781 14.8459 228.436 10.4644 221.74 10.4644ZM225.61 23.4497C225.61 28.449 224.015 30.9455 220.836 30.9455H216.69V16.005H220.836C224.015 16.005 225.61 18.4824 225.61 23.4498V23.4497Z" fill="white"/>
<path d="M199.156 19.5075L196.375 23.0929C195.337 24.3347 195.337 26.0161 196.375 28.1304L200.752 36.6005L207.961 36.6388L202.29 26.5447C202.002 25.8633 202.059 25.2519 202.457 24.7169L204.77 22.0103C205.904 20.7557 206.487 19.0999 206.513 17.0365C206.539 14.9795 205.936 13.3683 204.7 12.2028C203.469 11.0438 201.88 10.4706 199.925 10.496H186.519L186.538 36.6387H192.434V15.9284H199.906V15.9475C199.97 15.9347 200.021 15.9284 200.073 15.9284C200.31 15.9284 200.515 16.0175 200.681 16.1958C200.855 16.3806 200.938 16.5971 200.938 16.8581C200.938 17.1065 200.342 17.9918 199.156 19.5075Z" fill="white"/>
<path d="M177.753 36.715V10.4832H183.706V36.715H177.753Z" fill="white"/>
<path d="M169.947 23.4306L173.42 18.9535C174.433 17.4441 174.939 16.2405 174.939 15.3298C174.939 12.1073 173.151 10.4961 169.569 10.4961H155.938V36.6005H169.569C173.151 36.6005 174.939 35.0084 174.939 31.8242C174.939 30.9135 174.433 29.7098 173.42 28.2068L169.947 23.7298C169.87 23.6279 169.87 23.526 169.947 23.4305V23.4306ZM163.43 23.7617C163.43 24.3221 163.68 24.9717 164.18 25.7041L168.537 31.0218H161.776V16.1322H168.537L164.18 21.4499C163.718 22.1377 163.468 22.7428 163.43 23.2777V23.7617Z" fill="white"/>
<path d="M141.17 21.5354L141.167 21.5264C139.226 26.549 137.31 31.5818 135.361 36.6006H129.337L138.629 11.9546C138.853 11.4706 139.193 11.0757 139.642 10.7764C140.097 10.4898 140.596 10.3497 141.148 10.3497C141.686 10.3497 142.192 10.4898 142.666 10.7764C143.141 11.0757 143.487 11.4706 143.698 11.9546L153.125 36.6198H147.082C145.13 31.6314 143.224 26.4969 141.231 21.38L141.17 21.5354Z" fill="white"/>
<path d="M141.205 30.0671L141.203 30.0632C140.36 32.2451 139.528 34.4312 138.681 36.6114H136.064L140.101 25.9053C140.198 25.695 140.346 25.5235 140.541 25.3935C140.738 25.269 140.955 25.2081 141.195 25.2081C141.429 25.2081 141.649 25.269 141.855 25.3935C142.061 25.5235 142.211 25.695 142.303 25.9053L146.398 36.6197H143.773C142.925 34.4528 142.097 32.2224 141.231 29.9996L141.205 30.0671Z" fill="#B63336"/>
<path d="M105.869 36.6197L112.213 24.7934C112.777 23.6853 112.828 22.6026 112.367 21.5454L106.542 10.4961H113.225L117.211 18.2402L121.114 10.4961H127.74L121.979 21.5454C121.454 22.6026 121.479 23.6852 122.05 24.7934L128.4 36.6197H121.563L117.115 28.2451L112.687 36.6197H105.869H105.869Z" fill="white"/>
<path d="M103.049 36.6197H90.9758C87.6627 36.6197 86.0029 34.8493 86.0029 31.3021V15.2216C86.0029 12.0693 87.6627 10.4962 90.9758 10.4962H103.049V16.1133H92.0844V20.8004H101.191V26.3601H92.0844V30.9836H103.049V36.6197Z" fill="white"/>
<path d="M69.9187 26.5445V36.715H63.9653V10.4832H69.9187V20.9084H77.2371V10.4832H83.1904V36.715H77.2371V26.5445H69.9187Z" fill="white"/>
<path d="M66.7468 45.5892V49.5076H65.3408V39.3112C66.4025 39.266 67.0433 39.2423 67.2633 39.2423C70.2474 39.2423 71.7395 40.2332 71.7395 42.2173C71.7395 44.5104 70.422 45.6581 67.7846 45.6581C67.6268 45.6581 67.28 45.6344 66.7469 45.5892H66.7468ZM66.7468 40.5658V44.3346C67.3398 44.3798 67.6531 44.4035 67.6842 44.4035C69.4225 44.4035 70.2905 43.7239 70.2905 42.3623C70.2905 41.1196 69.3627 40.497 67.5096 40.497C67.3231 40.497 67.0697 40.5207 66.7468 40.5658ZM85.5917 49.5076L82.8586 45.1306C82.5454 45.1306 82.0504 45.1069 81.3738 45.0617V49.5076H79.9678V39.3041C80.0204 39.3041 80.3838 39.2875 81.0581 39.2518C81.7348 39.2162 82.2249 39.1995 82.5335 39.1995C85.0035 39.1995 86.2373 40.1762 86.2373 42.127C86.2373 42.7686 86.0388 43.346 85.6419 43.8593C85.2449 44.3726 84.7739 44.691 84.2263 44.8169L87.1985 49.5076H85.5917V49.5076ZM81.3737 40.5516V43.8784C81.7085 43.9235 82.0361 43.9472 82.3541 43.9472C83.1933 43.9472 83.8031 43.8118 84.1857 43.5433C84.5683 43.2724 84.7595 42.79 84.7595 42.0962C84.7595 41.5236 84.5539 41.1124 84.145 40.8606C83.7337 40.6087 83.0857 40.4827 82.1986 40.4827C82.0599 40.4827 81.7849 40.5066 81.3737 40.5517V40.5516ZM95.0441 49.5076V39.3136H96.4501V49.5076H95.0441ZM108.92 49.6502H108.217L104.387 39.3136H105.936L108.583 46.8272L111.13 39.3136H112.636L108.92 49.6502ZM124.704 49.5076L123.994 47.3548H120.157L119.396 49.5076H117.832L122.007 39.171H122.38L126.254 49.5076H124.704ZM122.129 41.8514L120.53 46.3282H123.593L122.129 41.8514H122.129ZM136.232 40.5682V49.5076H134.826V40.5682H131.555V39.3135H139.647V40.5682H136.232H136.232ZM148.777 40.5682V43.3912H152.091V44.5745H148.777V48.253H153.425V49.5076H147.371V39.3136H153.425V40.5683H148.777V40.5682ZM165.933 49.5076V39.3136H167.339V48.253H171.973V49.5077H165.933V49.5076ZM179.996 49.5076V39.3136H181.402V49.5076H179.996ZM198.018 49.5076L196.806 42.9635L194.561 49.6502H194.216L191.899 42.9635L190.716 49.5076H189.382L191.304 39.3136H191.935L194.396 46.756L196.641 39.3136H197.272L199.352 49.5076H198.018H198.018ZM207.277 49.5076V39.3136H208.683V49.5076H207.277ZM221.325 40.5682V49.5076H219.919V40.5682H216.648V39.3135H224.74V40.5682H221.325H221.325ZM233.869 40.5682V43.3912H237.184V44.5745H233.869V48.253H238.518V49.5076H232.463V39.3136H238.518V40.5683H233.869V40.5682ZM248.769 49.5076H246.703V39.3112C248.021 39.266 248.862 39.2423 249.233 39.2423C250.665 39.2423 251.801 39.6748 252.638 40.5397C253.472 41.4046 253.891 42.5572 253.891 43.9947C253.891 47.6708 252.183 49.5076 248.769 49.5076ZM248.109 40.5658V48.1841C248.422 48.2293 248.807 48.253 249.269 48.253C250.247 48.253 251.017 47.887 251.574 47.1576C252.133 46.4281 252.413 45.4134 252.413 44.1136C252.413 41.7017 251.325 40.497 249.149 40.497C249.02 40.497 248.673 40.5207 248.109 40.5658H248.109Z" fill="white"/>
</svg>
