<svg width="224" height="93" viewBox="0 0 224 93" fill="none" xmlns="http://www.w3.org/2000/svg">
<path d="M57.6325 62.9206C56.4983 62.3346 55.3642 61.7486 54.2316 61.1626C53.0991 60.5767 51.9665 59.9939 50.8339 59.408C50.8339 57.3405 50.8339 55.2666 50.8339 53.1958C50.8339 51.1284 50.8339 49.0544 50.8339 46.9837C50.2158 46.9706 49.5978 46.9574 48.9797 46.9442C48.9797 48.8635 48.9797 50.7828 48.9797 52.6987C48.9797 54.6147 48.9797 56.5373 48.9797 58.45C47.8456 57.8607 46.7114 57.2747 45.5789 56.6887C44.4463 56.1027 43.3137 55.52 42.1812 54.9341C42.1812 52.1127 42.1812 49.2881 42.1812 46.4669C42.1812 43.6423 42.1812 40.8177 42.1812 37.9898C43.3137 37.4006 44.4463 36.8179 45.5789 36.2319C46.7114 35.6459 47.8456 35.0599 48.9797 34.4706C48.9797 36.0673 48.9797 37.6606 48.9797 39.254C48.9797 40.8473 48.9797 42.4374 48.9797 44.0307C49.5978 43.9649 50.2158 43.9024 50.8339 43.8365C50.8339 42.1181 50.8339 40.3963 50.8339 38.6779C50.8339 36.9594 50.8339 35.2377 50.8339 33.5126C51.9665 32.9267 53.099 32.3439 54.2316 31.758C55.3642 31.172 56.4983 30.586 57.6325 30C57.6325 35.4879 57.6325 40.979 57.6325 46.4636C57.6325 51.9482 57.6325 57.436 57.6325 62.9206V62.9206Z" fill="#B63336"/>
<path d="M58.9941 62.3176C58.9941 57.0343 58.9941 51.7477 58.9941 46.4644C58.9941 41.181 58.9941 35.8945 58.9941 30.6079C60.2923 31.2594 61.5941 31.9097 62.8916 32.5561C64.1904 33.2031 65.491 33.8495 66.7906 34.4978C67.7217 34.9623 68.5895 35.4776 69.4019 36.0267C70.207 36.571 70.9501 37.1431 71.6431 37.7201C73.0109 38.8591 73.7067 39.907 73.7067 40.9585C73.7067 41.7487 73.7067 42.5357 73.7067 43.326C73.7067 43.9227 73.3769 44.3859 72.7398 44.7646C72.0905 45.1505 71.1298 45.4806 69.8436 45.7161C71.2014 45.9838 72.2128 46.3483 72.898 46.7708C73.5679 47.1839 73.9156 47.6707 73.9156 48.2932C73.9156 49.3834 73.9156 50.4704 73.9156 51.5606C73.9156 52.6702 73.2584 53.7602 71.9729 54.928C71.3124 55.528 70.6098 56.1182 69.8391 56.6633C69.0639 57.2116 68.2314 57.7201 67.3353 58.1664C65.9455 58.8586 64.5536 59.5528 63.1632 60.2469C61.7752 60.9397 60.3833 61.6306 58.9941 62.3176ZM67.4651 43.0035C67.4651 41.6874 67.4651 40.365 67.4651 39.0458C67.4651 38.2329 66.8488 37.5975 65.6163 37.1428C65.6163 38.2975 65.6163 39.4522 65.6163 40.6037C65.6163 41.7552 65.6163 42.9099 65.6163 44.0614C66.8488 44.1807 67.4651 43.8292 67.4651 43.0035ZM67.4651 53.8733C67.4651 51.9122 67.4651 49.9479 67.4651 47.9836C67.4651 47.1708 66.8488 46.774 65.6163 46.7901C65.6163 48.2932 65.6163 49.793 65.6163 51.2929C65.6163 52.7928 65.6163 54.2926 65.6163 55.7924C66.8488 55.3377 67.4651 54.699 67.4651 53.8733V53.8733Z" fill="#B63336"/>
<path fill-rule="evenodd" clip-rule="evenodd" d="M45.7969 44.8004C45.7969 44.8004 48.5287 43.9562 51.23 44.9772C51.8623 44.2315 52.7371 43.6848 53.8619 43.6848C54.9161 43.6848 55.9765 44.3275 56.4747 45.2676C56.7145 44.6393 57.9567 41.6695 60.4736 40.3226C63.2967 38.812 65.3681 37.5503 66.1866 35.2096C66.1866 35.2096 66.504 37.1685 63.7477 39.144C60.9915 41.1195 59.8388 41.8001 59.2374 42.5804C59.2374 42.5804 61.1919 41.1195 63.1129 40.0072C65.034 38.895 65.9193 37.4175 65.9193 37.4175C65.9193 37.4175 65.8024 40.3392 60.6406 42.8459C60.6406 42.8459 62.8958 42.4309 64.9171 40.2728C64.9171 40.2728 64.5662 42.7297 60.8745 44.257C60.8745 44.257 62.6118 44.0412 63.9816 42.5803C63.9816 42.5803 63.4303 44.1574 60.2397 44.6388C57.2213 45.0943 56.3697 45.551 56.2866 45.599L56.2794 45.6032C55.8842 44.6637 54.9507 44.0035 53.8619 44.0035C53.1709 44.0035 52.5425 44.2695 52.0745 44.7041C52.1259 44.684 52.1822 44.6728 52.2413 44.6728C52.4835 44.6728 52.6798 44.8597 52.6798 45.0903C52.6798 45.2751 52.5536 45.4319 52.3788 45.4868C52.9051 45.7919 53.4079 46.1845 53.8619 46.6862C53.3427 46.2907 53.0303 46.1714 52.4187 46.0619C52.4187 46.0619 52.5791 48.4125 54.3164 50.4976C56.0537 52.5827 58.7933 52.5827 58.7933 52.5827C58.7933 52.5827 55.4535 52.9078 53.4457 50.081C51.4378 47.2541 52.8601 45.9166 49.5696 45.0402C48.5021 44.8424 47.2424 44.731 45.7969 44.8003L45.7969 44.8004Z" fill="#FEFEFE"/>
<path fill-rule="evenodd" clip-rule="evenodd" d="M59.9453 52.6072C59.4149 54.7521 57.6984 56.4333 55.5264 56.925C55.6702 56.6602 55.7519 56.3571 55.7519 56.035C55.7519 55.9067 55.7389 55.7814 55.7142 55.6602C57.5541 55.3493 59.104 54.1928 59.9453 52.6072Z" fill="#FEFEFE"/>
<path fill-rule="evenodd" clip-rule="evenodd" d="M60.1377 49.0752C61.9376 50.441 62.9729 52.9929 62.9729 54.8065C62.9729 56.62 62.6867 57.1453 62.179 58.1519C62.0417 56.9225 61.5737 56.3005 61.1672 55.9877C61.2609 55.4833 61.3102 54.9634 61.3102 54.4321C61.3102 53.2694 61.0755 52.1613 60.6508 51.1518C61.0902 51.5366 61.6548 52.2567 62.121 53.5921C62.121 53.5921 62.4068 51.5116 60.1377 49.0752L60.1377 49.0752Z" fill="#FEFEFE"/>
<path fill-rule="evenodd" clip-rule="evenodd" d="M54.4672 48.6066C54.4672 48.6066 54.0998 46.5647 56.6389 45.7347C59.178 44.9046 60.6981 45.3528 63.8052 44.0248C63.8052 44.0248 62.8364 45.4524 60.4476 45.8509C58.0588 46.2493 57.0565 46.5481 57.0565 46.5481C57.0565 46.5481 58.7103 46.2991 60.1135 46.2327C61.5167 46.1663 63.137 45.5189 63.1704 45.3362C63.1704 45.3362 62.4354 47.4114 57.6913 47.345C57.6913 47.345 59.4453 47.8264 61.8508 46.9299C61.8508 46.9299 60.7621 48.5028 57.6078 48.4904C57.6078 48.4904 59.0109 48.8058 60.3139 48.2912C60.3139 48.2912 59.8462 49.5196 56.7224 48.9386C54.8824 48.6198 54.5529 48.5869 54.4672 48.6066Z" fill="#FEFEFE"/>
<path d="M52.362 45.2756C52.4427 45.2756 52.5082 45.2106 52.5082 45.1304C52.5082 45.0501 52.4427 44.9851 52.362 44.9851C52.2813 44.9851 52.2158 45.0501 52.2158 45.1304C52.2158 45.2106 52.2813 45.2756 52.362 45.2756Z" fill="#FEFEFE"/>
<path fill-rule="evenodd" clip-rule="evenodd" d="M53.0684 46.546C53.0684 46.546 53.9621 46.82 54.3212 47.3014C54.3212 47.3014 53.0099 49.3848 56.6014 51.2109C56.6014 51.2109 53.511 51.1445 53.0684 46.5461V46.546Z" fill="#FEFEFE"/>
<path fill-rule="evenodd" clip-rule="evenodd" d="M59.805 52.3141C59.805 52.3141 58.8278 53.2936 57.4329 53.5177C57.4329 53.5177 57.5499 54.3477 56.8315 54.8956C56.8315 54.8956 58.9152 54.0032 59.805 52.3141L59.805 52.3141Z" fill="#FEFEFE"/>
<path fill-rule="evenodd" clip-rule="evenodd" d="M59.8967 54.1816C59.8967 54.1816 59.0782 56.4394 56.4556 57.4022C56.4556 57.4022 57.2407 58.4812 56.489 59.4607C56.489 59.4607 59.2954 57.12 59.8967 54.1816Z" fill="#FEFEFE"/>
<path fill-rule="evenodd" clip-rule="evenodd" d="M60.4475 51.8907C60.4475 51.8907 60.9987 55.1777 58.3594 58.3817C58.3594 58.3817 59.1278 58.9627 58.7436 60.8386C58.7436 60.8386 61.8874 56.9655 60.4475 51.8907Z" fill="#FEFEFE"/>
<path d="M171.372 50.0924H177.533C177.849 50.0924 178.134 50.0644 178.387 50.012C179.048 49.8932 179.632 49.6591 180.138 49.3026C180.743 48.8798 181.189 48.3138 181.478 47.6044C181.773 46.9021 181.878 46.1508 181.787 45.3541C181.741 43.6874 180.992 42.5832 179.544 42.0346L174.846 40.9619C174.407 40.8116 174.185 40.4203 174.185 39.7948C174.185 39.1728 174.519 38.8618 175.184 38.8618H180.725V35.752H175.05C174.769 35.7764 174.491 35.8148 174.217 35.8638C173.412 36 172.768 36.2377 172.279 36.5801C171.731 36.9889 171.302 37.4956 170.993 38.0931C170.69 38.6941 170.543 39.3336 170.55 40.008C170.557 40.7243 170.725 41.3917 171.056 42.0032C171.383 42.6251 171.836 43.1283 172.413 43.5092C172.807 43.7747 173.289 43.9809 173.865 44.1242L177.522 44.8509C177.962 44.9732 178.183 45.3576 178.183 46.0075C178.183 46.6575 177.852 46.9789 177.195 46.9789H171.372V50.0923L171.372 50.0924Z" fill="#201E1E"/>
<path d="M163.482 35.7416L157.466 35.7521V50.0924H163.482C167.157 50.0855 168.992 47.7059 168.992 42.9572C168.992 38.1456 167.157 35.7416 163.482 35.7416ZM165.606 42.8663C165.606 45.6093 164.731 46.9791 162.987 46.9791H160.712V38.7816H162.987C164.731 38.7816 165.606 40.1409 165.606 42.8664V42.8663Z" fill="#201E1E"/>
<path d="M151.091 40.7034L149.565 42.6706C148.996 43.352 148.996 44.2745 149.565 45.4346L151.967 50.0819L155.923 50.1029L152.811 44.5645C152.653 44.1906 152.684 43.8552 152.902 43.5616L154.172 42.0766C154.794 41.3882 155.114 40.4797 155.128 39.3476C155.142 38.219 154.812 37.3349 154.133 36.6955C153.458 36.0595 152.586 35.745 151.513 35.759H144.158L144.168 50.1029H147.403V38.7396H151.503V38.7501C151.538 38.7431 151.566 38.7396 151.594 38.7396C151.724 38.7396 151.837 38.7885 151.928 38.8863C152.023 38.9877 152.069 39.1065 152.069 39.2497C152.069 39.386 151.742 39.8717 151.091 40.7034Z" fill="#201E1E"/>
<path d="M139.348 50.1447V35.752H142.615V50.1447H139.348Z" fill="#201E1E"/>
<path d="M135.065 42.8559L136.971 40.3994C137.526 39.5713 137.804 38.9108 137.804 38.4112C137.804 36.6431 136.823 35.759 134.858 35.759H127.379V50.0819H134.858C136.823 50.0819 137.804 49.2084 137.804 47.4613C137.804 46.9616 137.526 46.3012 136.971 45.4765L135.065 43.0201C135.023 42.9642 135.023 42.9082 135.065 42.8558V42.8559ZM131.489 43.0376C131.489 43.3451 131.626 43.7015 131.901 44.1033L134.292 47.021H130.582V38.8515H134.292L131.901 41.7691C131.647 42.1465 131.51 42.4785 131.489 42.772V43.0376Z" fill="#201E1E"/>
<path d="M119.276 41.816L119.274 41.8111C118.209 44.5669 117.158 47.3282 116.088 50.082H112.783L117.882 36.5593C118.005 36.2937 118.191 36.077 118.437 35.9128C118.687 35.7556 118.961 35.6787 119.263 35.6787C119.559 35.6787 119.837 35.7556 120.097 35.9128C120.357 36.077 120.547 36.2937 120.663 36.5593L125.835 50.0925H122.519C121.448 47.3555 120.403 44.5383 119.309 41.7308L119.276 41.816Z" fill="#201E1E"/>
<path d="M119.295 46.4972L119.294 46.495C118.832 47.6922 118.375 48.8917 117.91 50.0879H116.475L118.689 44.2137C118.743 44.0983 118.824 44.0042 118.931 43.9329C119.039 43.8646 119.158 43.8312 119.29 43.8312C119.418 43.8312 119.539 43.8646 119.652 43.9329C119.765 44.0042 119.847 44.0983 119.897 44.2137L122.144 50.0925H120.704C120.239 48.9035 119.785 47.6798 119.309 46.4602L119.295 46.4972Z" fill="#B63336"/>
<path d="M99.9072 50.0924L103.388 43.6036C103.698 42.9956 103.726 42.4016 103.473 41.8215L100.276 35.759H103.944L106.131 40.008L108.272 35.759H111.908L108.747 41.8215C108.458 42.4016 108.472 42.9956 108.785 43.6036L112.27 50.0924H108.518L106.078 45.4975L103.648 50.0924H99.9073H99.9072Z" fill="#201E1E"/>
<path d="M98.3602 50.0924H91.7358C89.918 50.0924 89.0073 49.121 89.0073 47.1747V38.3518C89.0073 36.6221 89.918 35.759 91.7358 35.759H98.3602V38.841H92.3441V41.4127H97.3405V44.4632H92.3441V47H98.3602V50.0924Z" fill="#201E1E"/>
<path d="M80.182 44.5644V50.1447H76.9155V35.752H80.182V41.472H84.1974V35.752H87.4639V50.1447H84.1974V44.5644H80.182Z" fill="#201E1E"/>
<path d="M78.4419 55.0138V57.1638H77.6704V51.5692C78.2529 51.5444 78.6045 51.5314 78.7252 51.5314C80.3626 51.5314 81.1812 52.0751 81.1812 53.1638C81.1812 54.4219 80.4583 55.0516 79.0113 55.0516C78.9247 55.0516 78.7344 55.0386 78.4419 55.0138H78.4419ZM78.4419 52.2576V54.3255C78.7672 54.3502 78.9391 54.3633 78.9562 54.3633C79.9099 54.3633 80.3862 53.9904 80.3862 53.2433C80.3862 52.5614 79.8771 52.2198 78.8604 52.2198C78.758 52.2198 78.619 52.2329 78.4419 52.2576ZM88.7816 57.1638L87.282 54.7622C87.1102 54.7622 86.8386 54.7492 86.4673 54.7244V57.1638H85.6959V51.5653C85.7248 51.5653 85.9242 51.5562 86.2941 51.5366C86.6654 51.5171 86.9343 51.508 87.1036 51.508C88.4588 51.508 89.1358 52.0438 89.1358 53.1142C89.1358 53.4662 89.0269 53.783 88.8091 54.0647C88.5913 54.3463 88.3329 54.521 88.0324 54.5901L89.6632 57.1637H88.7816V57.1638ZM86.4673 52.2498V54.0751C86.651 54.0999 86.8307 54.1129 87.0052 54.1129C87.4657 54.1129 87.8002 54.0386 88.0101 53.8913C88.2201 53.7427 88.325 53.478 88.325 53.0973C88.325 52.7831 88.2122 52.5575 87.9878 52.4193C87.7622 52.2811 87.4066 52.212 86.9199 52.212C86.8438 52.212 86.6929 52.2251 86.4673 52.2498V52.2498ZM93.9679 57.1638V51.5705H94.7394V57.1638H93.9679ZM101.581 57.242H101.196L99.094 51.5705H99.9441L101.396 55.6931L102.794 51.5705H103.62L101.581 57.242ZM110.242 57.1638L109.852 55.9825H107.747L107.329 57.1638H106.471L108.762 51.4923H108.967L111.092 57.1638H110.242ZM108.829 52.963L107.951 55.4193H109.632L108.829 52.963H108.829ZM116.567 52.2589V57.1638H115.796V52.2589H114.001V51.5705H118.44V52.2589H116.567H116.567ZM123.45 52.2589V53.8078H125.268V54.4571H123.45V56.4754H126V57.1638H122.678V51.5705H126V52.259H123.45V52.2589ZM132.863 57.1638V51.5705H133.635V56.4754H136.177V57.1638H132.863V57.1638ZM140.579 57.1638V51.5705H141.35V57.1638H140.579ZM150.467 57.1638L149.802 53.5732L148.57 57.242H148.381L147.11 53.5732L146.461 57.1638H145.729L146.783 51.5705H147.13L148.48 55.654L149.712 51.5705H150.058L151.199 57.1638H150.467H150.467ZM155.547 57.1638V51.5705H156.319V57.1638H155.547ZM163.255 52.2589V57.1638H162.484V52.2589H160.689V51.5705H165.129V52.2589H163.255H163.255ZM170.138 52.2589V53.8078H171.957V54.4571H170.138V56.4754H172.689V57.1638H169.367V51.5705H172.689V52.259H170.138V52.2589ZM178.313 57.1638H177.18V51.5692C177.902 51.5444 178.364 51.5314 178.568 51.5314C179.353 51.5314 179.977 51.7687 180.436 52.2433C180.894 52.7178 181.123 53.3502 181.123 54.139C181.123 56.1559 180.187 57.1638 178.313 57.1638ZM177.951 52.2576V56.4376C178.123 56.4624 178.334 56.4754 178.587 56.4754C179.124 56.4754 179.546 56.2746 179.852 55.8744C180.159 55.4741 180.312 54.9174 180.312 54.2042C180.312 52.8808 179.716 52.2198 178.522 52.2198C178.451 52.2198 178.261 52.2329 177.951 52.2576H177.951Z" fill="#201E1E"/>
</svg>
